# xmcd
#
# Track frame offsets:
#	150
#	13581
#	23540
#	35400
#	50414
#	65281
#	79697
#	99897
#	109486
#	124600
#	141205
#	155852
#	167038
#	180792
#	196897
#	209505
#	222135
#	237592
#	251207
#	267214
#	282847
#	292310
#	306309
#	316862
#
# Disc length: 4422
#
# Revision: 1
# Processed by: cddbd v1.5.1PL0 Copyright (c) Steve Scherf et al.
# Submitted via: dBpowerAMP V4.0
# Normalized: r0:TRMNUM
#
DISCID=5c114418
DTITLE=Sérgio Reis - Bailão do Sérgio Reis
DYEAR=1900
DGENRE=Country
TTITLE0=Novilha
TTITLE1=Adeus Mariana
TTITLE2=Fui pra casa da vizinha
TTITLE3=Vanerão do coroa
TTITLE4=Panela velha
TTITLE5=Casamento é uma gaiola
TTITLE6=Pinga ni mim
TTITLE7=Tô ficando velho
TTITLE8=Negócio do sócio
TTITLE9=É disso que o velho gosta
TTITLE10=Baita macho
TTITLE11=O doutor e a empregada
TTITLE12=Rabo de saia
TTITLE13=Baile de cowboy
TTITLE14=Vou tomá um pingão
TTITLE15=Pinha no pinheiro
TTITLE16=Tchau amor
TTITLE17=Vespeira
TTITLE18=Hoje eu não posso ir
TTITLE19=Não há coração que aguente
TTITLE20=Sentimento de caipira
TTITLE21=Gaúcho largado
TTITLE22=Gaúcho de Passo Fundo
TTITLE23=Baião da garoa
EXTD=
EXTT0=
EXTT1=
EXTT2=
EXTT3=
EXTT4=
EXTT5=
EXTT6=
EXTT7=
EXTT8=
EXTT9=
EXTT10=
EXTT11=
EXTT12=
EXTT13=
EXTT14=
EXTT15=
EXTT16=
EXTT17=
EXTT18=
EXTT19=
EXTT20=
EXTT21=
EXTT22=
EXTT23=
PLAYORDER=
